<?xml version="1.0" encoding="UTF-8"?><svg id="_レイヤー_1" xmlns="http://www.w3.org/2000/svg" viewBox="0 0 1760 62"><defs><style>.cls-1{fill:none;stroke:#b3a044;stroke-miterlimit:10;stroke-width:3px;}.cls-2{fill:#b3a044;}</style></defs><path class="cls-2" d="M880,4c14.89,0,27,12.11,27,27s-12.11,27-27,27-27-12.11-27-27,12.11-27,27-27m0-4c-17.12,0-31,13.88-31,31s13.88,31,31,31,31-13.88,31-31-13.88-31-31-31h0Z"/><path class="cls-2" d="M880,4l-27,27,27,27,27-27-27-27Zm-6.75,27l6.75-6.75,6.75,6.75-6.75,6.75-6.75-6.75Z"/><line class="cls-1" y1="31.5" x2="800" y2="31.5"/><line class="cls-1" x1="960" y1="27.5" x2="1760" y2="27.5"/></svg>